<svg width="36" height="29" viewBox="0 0 36 29" fill="none" xmlns="http://www.w3.org/2000/svg">
<path d="M8.36094 12.9715V19.434M27.7484 9.74023V16.2027M26.1328 1.66211C30.089 1.66211 32.2288 2.26758 33.2935 2.73721C33.4352 2.79976 33.5061 2.83103 33.7107 3.0263C33.8334 3.14334 34.0573 3.48679 34.1149 3.64624C34.2109 3.91225 34.2109 4.05766 34.2109 4.34848V21.7139C34.2109 23.1821 34.2109 23.9162 33.9908 24.2936C33.7668 24.6774 33.5508 24.8558 33.1316 25.0033C32.7195 25.1484 31.8876 24.9885 30.2239 24.6689C29.0593 24.4451 27.6782 24.2809 26.1328 24.2809C21.2859 24.2809 16.4391 27.5121 9.97656 27.5121C6.02037 27.5121 3.88059 26.9066 2.81592 26.437C2.67414 26.3745 2.60324 26.3432 2.39863 26.1479C2.27599 26.0309 2.05211 25.6874 1.99452 25.528C1.89844 25.262 1.89844 25.1166 1.89844 24.8257L1.89844 7.46035C1.89844 5.99212 1.89844 5.25801 2.11861 4.88067C2.34258 4.49683 2.55857 4.31839 2.97777 4.17087C3.38988 4.02585 4.22176 4.18569 5.88552 4.50536C7.05005 4.72912 8.43119 4.89336 9.97656 4.89336C14.8234 4.89336 19.6703 1.66211 26.1328 1.66211ZM22.0938 14.5871C22.0938 16.8178 20.2854 18.6262 18.0547 18.6262C15.824 18.6262 14.0156 16.8178 14.0156 14.5871C14.0156 12.3564 15.824 10.548 18.0547 10.548C20.2854 10.548 22.0938 12.3564 22.0938 14.5871Z" stroke="#2468FF" stroke-width="2.3" stroke-linecap="round" stroke-linejoin="round"/>
</svg>
