<svg width="26" height="29" viewBox="0 0 26 29" fill="none" xmlns="http://www.w3.org/2000/svg">
<path d="M22.68 12.3127V8.17666C22.68 6.00505 22.68 4.91925 22.2574 4.08981C21.8856 3.36021 21.2924 2.76703 20.5628 2.39528C19.7334 1.97266 18.6476 1.97266 16.476 1.97266H8.204C6.0324 1.97266 4.94659 1.97266 4.11715 2.39528C3.38755 2.76703 2.79437 3.36021 2.42262 4.08981C2 4.91925 2 6.00505 2 8.17666V21.6187C2 23.7903 2 24.8761 2.42262 25.7055C2.79437 26.4351 3.38755 27.0283 4.11715 27.4C4.94659 27.8227 6.0324 27.8227 8.204 27.8227H12.34M12.9863 13.6052H7.17M8.4625 18.7752H7.17M17.51 8.43516H7.17M18.799 18.5562C17.7653 17.3813 16.0416 17.0653 14.7465 18.1411C13.4514 19.217 13.269 21.0157 14.2861 22.2881C15.3031 23.5605 18.799 26.5302 18.799 26.5302C18.799 26.5302 22.2948 23.5605 23.3118 22.2881C24.3289 21.0157 24.1688 19.2056 22.8514 18.1411C21.5341 17.0766 19.8326 17.3813 18.799 18.5562Z" stroke="#2468FF" stroke-width="2.3" stroke-linecap="round" stroke-linejoin="round"/>
</svg>
