<svg width="29" height="29" viewBox="0 0 29 29" fill="none" xmlns="http://www.w3.org/2000/svg">
<path d="M4.48347 27.325C5.2623 27.5609 6.31425 27.5609 8.10244 27.5609H21.5444C23.3326 27.5609 24.3846 27.5609 25.1634 27.325M4.48347 27.325C4.31647 27.2744 4.16204 27.2129 4.01559 27.1383C3.28599 26.7666 2.69281 26.1734 2.32106 25.4438C1.89844 24.6143 1.89844 23.5285 1.89844 21.3569V7.91494C1.89844 5.74333 1.89844 4.65753 2.32106 3.82809C2.69281 3.09849 3.28599 2.50531 4.01559 2.13356C4.84503 1.71094 5.93083 1.71094 8.10244 1.71094H21.5444C23.716 1.71094 24.8018 1.71094 25.6313 2.13356C26.3609 2.50531 26.9541 3.09849 27.3258 3.82809C27.7484 4.65753 27.7484 5.74333 27.7484 7.91494V21.3569C27.7484 23.5285 27.7484 24.6143 27.3258 25.4438C26.9541 26.1734 26.3609 26.7666 25.6313 27.1383C25.4848 27.2129 25.3304 27.2744 25.1634 27.325M4.48347 27.325C4.48389 26.2789 4.49017 25.7254 4.58278 25.2598C4.99073 23.2089 6.59393 21.6057 8.64482 21.1978C9.14424 21.0984 9.7448 21.0984 10.9459 21.0984H18.7009C19.9021 21.0984 20.5026 21.0984 21.0021 21.1978C23.0529 21.6057 24.6562 23.2089 25.0641 25.2598C25.1567 25.7254 25.163 26.2789 25.1634 27.325M19.9934 11.4047C19.9934 14.26 17.6787 16.5747 14.8234 16.5747C11.9681 16.5747 9.65344 14.26 9.65344 11.4047C9.65344 8.54938 11.9681 6.23469 14.8234 6.23469C17.6787 6.23469 19.9934 8.54938 19.9934 11.4047Z" stroke="#2468FF" stroke-width="2.3" stroke-linecap="round" stroke-linejoin="round"/>
</svg>
