<svg width="96" height="99" viewBox="0 0 96 99" fill="none" xmlns="http://www.w3.org/2000/svg">
<path d="M25.4848 69.018L25.4778 71.38L25.4048 96.364L2.71484 83.261L2.78884 55.915L4.69384 57.016L25.2768 68.897L25.4848 69.018Z" fill="#2468FF" stroke="#121212" stroke-width="4" stroke-linecap="round" stroke-linejoin="round"/>
<path d="M48.0352 55.915L47.9612 83.261L25.4062 96.364L25.4792 71.38L25.4862 69.018L46.1433 57.016L48.0352 55.915Z" fill="#2468FF" stroke="#121212" stroke-width="4" stroke-linecap="round" stroke-linejoin="round"/>
<path d="M48.0341 55.9155L46.1421 57.0165L25.4851 69.0185L25.2771 68.8975L4.69406 57.0165L2.78906 55.9155L25.3441 42.8135L48.0341 55.9155Z" fill="#2468FF" stroke="#121212" stroke-width="4" stroke-linecap="round" stroke-linejoin="round"/>
<path d="M70.7309 69.018L70.7239 71.38L70.6509 96.364L47.9609 83.261L48.0349 55.915L49.9399 57.016L70.5229 68.897L70.7309 69.018Z" fill="#2468FF" stroke="#121212" stroke-width="4" stroke-linecap="round" stroke-linejoin="round"/>
<path d="M93.2813 55.915L93.2073 83.261L70.6523 96.364L70.7253 71.38L70.7323 69.018L91.3893 57.016L93.2813 55.915Z" fill="#2468FF" stroke="#121212" stroke-width="4" stroke-linecap="round" stroke-linejoin="round"/>
<path d="M93.2802 55.9155L91.3882 57.0165L70.7312 69.0185L70.5232 68.8975L49.9402 57.0165L48.0352 55.9155L70.5902 42.8135L93.2802 55.9155Z" fill="#2468FF" stroke="#121212" stroke-width="4" stroke-linecap="round" stroke-linejoin="round"/>
<path d="M48.1069 28.5688L48.0999 30.9308L48.0259 55.9148L25.3359 42.8128L25.4099 15.4668L27.3149 16.5668L47.8989 28.4488L48.1069 28.5688Z" fill="#3FE8BE" stroke="#121212" stroke-width="4" stroke-linecap="round" stroke-linejoin="round"/>
<path d="M70.6573 15.4668L70.5833 42.8128L48.0273 55.9148L48.1013 30.9308L48.1083 28.5688L68.7653 16.5668L70.6573 15.4668Z" fill="#3FE8BE" stroke="#121212" stroke-width="4" stroke-linecap="round" stroke-linejoin="round"/>
<path d="M70.6562 15.4673L68.7642 16.5673L48.1072 28.5693L47.8992 28.4493L27.3152 16.5673L25.4102 15.4673L47.9662 2.36426L70.6562 15.4673Z" fill="#3FE8BE" stroke="#121212" stroke-width="4" stroke-linecap="round" stroke-linejoin="round"/>
</svg>
