<svg width="140" height="111" viewBox="0 0 140 111" fill="none" xmlns="http://www.w3.org/2000/svg">
<path d="M127.897 57.8367L119.882 56.4203L116.525 55.8227L109.865 46.7938L121.233 48.8146L127.897 57.8367Z" stroke="#111111" stroke-width="3.5" stroke-linecap="round" stroke-linejoin="round"/>
<path d="M127.896 57.8365L120.435 99.9229L78.8341 92.4615L80.1796 84.8717L80.9604 80.4608L111.203 85.8223L116.525 55.8226L119.881 56.4202L127.896 57.8365Z" stroke="#111111" stroke-width="3.5" stroke-linecap="round" stroke-linejoin="round"/>
<path d="M111.204 85.8235L80.9614 80.462L74.1883 72.0764L104.431 77.4379L111.204 85.8235Z" stroke="#111111" stroke-width="3.5" stroke-linecap="round" stroke-linejoin="round"/>
<path d="M116.526 55.8229L111.204 85.8226L104.431 77.437L109.865 46.7939L116.526 55.8229Z" stroke="#111111" stroke-width="3.5" stroke-linecap="round" stroke-linejoin="round"/>
<path d="M80.9616 80.4618L80.1808 84.8728L78.8353 92.4625L72.1693 83.4495L74.1885 72.0762L80.9616 80.4618Z" stroke="#111111" stroke-width="3.5" stroke-linecap="round" stroke-linejoin="round"/>
<path d="M65.4791 32.5952L84.6228 49.8325L61.1703 57.5262L42.0227 40.2941L65.4791 32.5952Z" stroke="#111111" stroke-width="3.5" stroke-linecap="round" stroke-linejoin="round"/>
<path d="M70.45 8.5353L89.5976 25.7674L84.6232 49.8317L65.4795 32.5945L70.45 8.5353Z" fill="#2468FF" stroke="#111111" stroke-width="3.5" stroke-linecap="round" stroke-linejoin="round"/>
<path d="M70.4491 8.53477L65.4786 32.594L42.0222 40.2929L46.9966 16.2285L70.4491 8.53477Z" stroke="#111111" stroke-width="3.5" stroke-linecap="round" stroke-linejoin="round"/>
<path d="M2.26953 75.0322C8.29587 75.0322 8.29587 63.5684 14.3232 63.5684C20.3506 63.5684 20.3475 75.0322 26.3718 75.0322C32.3961 75.0322 32.4002 63.5684 38.4286 63.5684C44.457 63.5684 44.4559 75.0322 50.4843 75.0322" stroke="#121212" stroke-width="3.5" stroke-linecap="round" stroke-linejoin="round"/>
</svg>
